<mxfile host="app.diagrams.net" modified="2022-03-08T11:08:42.102Z" agent="5.0 (Windows NT 10.0; Win64; x64) AppleWebKit/537.36 (KHTML, like Gecko) Chrome/98.0.4758.102 Safari/537.36" etag="rtl_53HRgqg8Q1bhCvJK" version="16.6.5" type="github">
  <diagram id="pYFVfRb3NWyNcNGSS175" name="Page-1">
    <mxGraphModel dx="1022" dy="441" grid="1" gridSize="10" guides="1" tooltips="1" connect="1" arrows="1" fold="1" page="1" pageScale="1" pageWidth="827" pageHeight="1169" math="0" shadow="0">
      <root>
        <mxCell id="0" />
        <mxCell id="1" parent="0" />
        <mxCell id="oEbrAgYx0rbv4vzxx77d-3" value="" style="edgeStyle=orthogonalEdgeStyle;rounded=0;orthogonalLoop=1;jettySize=auto;html=1;" edge="1" parent="1" source="oEbrAgYx0rbv4vzxx77d-1" target="oEbrAgYx0rbv4vzxx77d-2">
          <mxGeometry relative="1" as="geometry" />
        </mxCell>
        <mxCell id="oEbrAgYx0rbv4vzxx77d-1" value="Start" style="ellipse;whiteSpace=wrap;html=1;" vertex="1" parent="1">
          <mxGeometry x="354" y="20" width="120" height="80" as="geometry" />
        </mxCell>
        <mxCell id="oEbrAgYx0rbv4vzxx77d-6" value="" style="edgeStyle=orthogonalEdgeStyle;rounded=0;orthogonalLoop=1;jettySize=auto;html=1;" edge="1" parent="1" source="oEbrAgYx0rbv4vzxx77d-2" target="oEbrAgYx0rbv4vzxx77d-5">
          <mxGeometry relative="1" as="geometry" />
        </mxCell>
        <mxCell id="oEbrAgYx0rbv4vzxx77d-2" value="Hent billede fra udvalget af forkellige billeder." style="whiteSpace=wrap;html=1;" vertex="1" parent="1">
          <mxGeometry x="354" y="150" width="120" height="60" as="geometry" />
        </mxCell>
        <mxCell id="oEbrAgYx0rbv4vzxx77d-10" value="" style="edgeStyle=orthogonalEdgeStyle;rounded=0;orthogonalLoop=1;jettySize=auto;html=1;" edge="1" parent="1" source="oEbrAgYx0rbv4vzxx77d-5" target="oEbrAgYx0rbv4vzxx77d-9">
          <mxGeometry relative="1" as="geometry" />
        </mxCell>
        <mxCell id="oEbrAgYx0rbv4vzxx77d-5" value="Vis billede på skærm, sammen med kort af EUC Syd." style="whiteSpace=wrap;html=1;" vertex="1" parent="1">
          <mxGeometry x="354" y="230" width="120" height="60" as="geometry" />
        </mxCell>
        <mxCell id="oEbrAgYx0rbv4vzxx77d-12" value="" style="edgeStyle=orthogonalEdgeStyle;rounded=0;orthogonalLoop=1;jettySize=auto;html=1;startArrow=none;" edge="1" parent="1" source="oEbrAgYx0rbv4vzxx77d-15" target="oEbrAgYx0rbv4vzxx77d-11">
          <mxGeometry relative="1" as="geometry">
            <Array as="points">
              <mxPoint x="270" y="380" />
              <mxPoint x="270" y="380" />
            </Array>
          </mxGeometry>
        </mxCell>
        <mxCell id="oEbrAgYx0rbv4vzxx77d-19" value="" style="edgeStyle=orthogonalEdgeStyle;rounded=0;orthogonalLoop=1;jettySize=auto;html=1;startArrow=none;" edge="1" parent="1" source="oEbrAgYx0rbv4vzxx77d-24" target="oEbrAgYx0rbv4vzxx77d-18">
          <mxGeometry relative="1" as="geometry">
            <Array as="points">
              <mxPoint x="530" y="350" />
            </Array>
          </mxGeometry>
        </mxCell>
        <mxCell id="oEbrAgYx0rbv4vzxx77d-9" value="Zoomer du på kortet?" style="rhombus;whiteSpace=wrap;html=1;" vertex="1" parent="1">
          <mxGeometry x="374" y="310" width="80" height="80" as="geometry" />
        </mxCell>
        <mxCell id="oEbrAgYx0rbv4vzxx77d-11" value="Kortet bliver i den samme position." style="whiteSpace=wrap;html=1;" vertex="1" parent="1">
          <mxGeometry x="210" y="420" width="120" height="60" as="geometry" />
        </mxCell>
        <mxCell id="oEbrAgYx0rbv4vzxx77d-15" value="Nej" style="text;html=1;strokeColor=none;fillColor=none;align=center;verticalAlign=middle;whiteSpace=wrap;rounded=0;" vertex="1" parent="1">
          <mxGeometry x="270" y="335" width="60" height="30" as="geometry" />
        </mxCell>
        <mxCell id="oEbrAgYx0rbv4vzxx77d-17" value="" style="edgeStyle=orthogonalEdgeStyle;rounded=0;orthogonalLoop=1;jettySize=auto;html=1;endArrow=none;" edge="1" parent="1" source="oEbrAgYx0rbv4vzxx77d-9" target="oEbrAgYx0rbv4vzxx77d-15">
          <mxGeometry relative="1" as="geometry">
            <mxPoint x="374" y="350" as="sourcePoint" />
            <mxPoint x="270" y="420" as="targetPoint" />
          </mxGeometry>
        </mxCell>
        <mxCell id="oEbrAgYx0rbv4vzxx77d-21" value="" style="edgeStyle=orthogonalEdgeStyle;rounded=0;orthogonalLoop=1;jettySize=auto;html=1;startArrow=none;" edge="1" parent="1" source="oEbrAgYx0rbv4vzxx77d-27" target="oEbrAgYx0rbv4vzxx77d-20">
          <mxGeometry relative="1" as="geometry">
            <Array as="points">
              <mxPoint x="590" y="420" />
            </Array>
          </mxGeometry>
        </mxCell>
        <mxCell id="oEbrAgYx0rbv4vzxx77d-23" value="" style="edgeStyle=orthogonalEdgeStyle;rounded=0;orthogonalLoop=1;jettySize=auto;html=1;startArrow=none;" edge="1" parent="1" source="oEbrAgYx0rbv4vzxx77d-29" target="oEbrAgYx0rbv4vzxx77d-22">
          <mxGeometry relative="1" as="geometry">
            <Array as="points">
              <mxPoint x="420" y="420" />
            </Array>
          </mxGeometry>
        </mxCell>
        <mxCell id="oEbrAgYx0rbv4vzxx77d-18" value="Zoomer du ind på kortet?" style="rhombus;whiteSpace=wrap;html=1;" vertex="1" parent="1">
          <mxGeometry x="460" y="380" width="80" height="80" as="geometry" />
        </mxCell>
        <mxCell id="oEbrAgYx0rbv4vzxx77d-20" value="Zoom ind" style="whiteSpace=wrap;html=1;" vertex="1" parent="1">
          <mxGeometry x="530" y="490" width="120" height="60" as="geometry" />
        </mxCell>
        <mxCell id="oEbrAgYx0rbv4vzxx77d-22" value="Zoom udRut" style="whiteSpace=wrap;html=1;" vertex="1" parent="1">
          <mxGeometry x="360" y="490" width="120" height="60" as="geometry" />
        </mxCell>
        <mxCell id="oEbrAgYx0rbv4vzxx77d-24" value="Ja" style="text;html=1;strokeColor=none;fillColor=none;align=center;verticalAlign=middle;whiteSpace=wrap;rounded=0;" vertex="1" parent="1">
          <mxGeometry x="470" y="335" width="60" height="30" as="geometry" />
        </mxCell>
        <mxCell id="oEbrAgYx0rbv4vzxx77d-26" value="" style="edgeStyle=orthogonalEdgeStyle;rounded=0;orthogonalLoop=1;jettySize=auto;html=1;endArrow=none;" edge="1" parent="1" source="oEbrAgYx0rbv4vzxx77d-9" target="oEbrAgYx0rbv4vzxx77d-24">
          <mxGeometry relative="1" as="geometry">
            <mxPoint x="454" y="350" as="sourcePoint" />
            <mxPoint x="530" y="365" as="targetPoint" />
            <Array as="points" />
          </mxGeometry>
        </mxCell>
        <mxCell id="oEbrAgYx0rbv4vzxx77d-27" value="Ja" style="text;html=1;strokeColor=none;fillColor=none;align=center;verticalAlign=middle;whiteSpace=wrap;rounded=0;" vertex="1" parent="1">
          <mxGeometry x="550" y="405" width="60" height="30" as="geometry" />
        </mxCell>
        <mxCell id="oEbrAgYx0rbv4vzxx77d-28" value="" style="edgeStyle=orthogonalEdgeStyle;rounded=0;orthogonalLoop=1;jettySize=auto;html=1;endArrow=none;" edge="1" parent="1" source="oEbrAgYx0rbv4vzxx77d-18" target="oEbrAgYx0rbv4vzxx77d-27">
          <mxGeometry relative="1" as="geometry">
            <mxPoint x="540" y="420" as="sourcePoint" />
            <mxPoint x="590" y="490" as="targetPoint" />
            <Array as="points" />
          </mxGeometry>
        </mxCell>
        <mxCell id="oEbrAgYx0rbv4vzxx77d-29" value="&lt;span style=&quot;color: rgb(0, 0, 0); font-family: helvetica; font-size: 12px; font-style: normal; font-weight: 400; letter-spacing: normal; text-align: center; text-indent: 0px; text-transform: none; word-spacing: 0px; background-color: rgb(248, 249, 250); display: inline; float: none;&quot;&gt;Nej&lt;/span&gt;" style="text;whiteSpace=wrap;html=1;" vertex="1" parent="1">
          <mxGeometry x="410" y="405" width="40" height="30" as="geometry" />
        </mxCell>
        <mxCell id="oEbrAgYx0rbv4vzxx77d-30" value="" style="edgeStyle=orthogonalEdgeStyle;rounded=0;orthogonalLoop=1;jettySize=auto;html=1;endArrow=none;" edge="1" parent="1" source="oEbrAgYx0rbv4vzxx77d-18" target="oEbrAgYx0rbv4vzxx77d-29">
          <mxGeometry relative="1" as="geometry">
            <mxPoint x="460" y="420" as="sourcePoint" />
            <mxPoint x="420" y="490" as="targetPoint" />
            <Array as="points" />
          </mxGeometry>
        </mxCell>
      </root>
    </mxGraphModel>
  </diagram>
</mxfile>
